HIERARCHY
ROOT Hips
{
	OFFSET 0.000000 100.481300 0.000000
	CHANNELS 6 Xposition Yposition Zposition Xrotation Yrotation Zrotation 
	JOINT Spine
	{
		OFFSET -0.279200 12.230698 -2.892100
		CHANNELS 3 Xrotation Yrotation Zrotation
		JOINT Spine1
		{
			OFFSET -0.232667 10.192268 -1.242267
			CHANNELS 3 Xrotation Yrotation Zrotation
			JOINT Spine1_split
			{
				OFFSET -0.232667 10.192268 -1.242267
				CHANNELS 3 Xrotation Yrotation Zrotation
				JOINT Spine2
				{
					OFFSET -0.232667 10.192268 -1.242267
					CHANNELS 3 Xrotation Yrotation Zrotation
					JOINT Neck
					{
						OFFSET -0.418800 17.814194 8.416900
						CHANNELS 3 Xrotation Yrotation Zrotation
						JOINT Head
						{
							OFFSET 0.000000 7.031097 3.806800
							CHANNELS 3 Xrotation Yrotation Zrotation
							JOINT HeadTop_End
							{
								OFFSET 0.000000 24.646606 12.978600
								CHANNELS 3 Xrotation Yrotation Zrotation
								End Site
								{
									OFFSET 0.000000 0.000000 0.000000
								}
							}
						}
					}
					JOINT LeftShoulder
					{
						OFFSET 8.476499 7.247704 -3.868750
						CHANNELS 3 Xrotation Yrotation Zrotation
						JOINT LeftShoulder_split
						{
							OFFSET 8.476499 7.247704 -3.868750
							CHANNELS 3 Xrotation Yrotation Zrotation
							JOINT LeftArm
							{
								OFFSET 9.308998 -2.777710 0.208600
								CHANNELS 3 Xrotation Yrotation Zrotation
								JOINT LeftForeArm
								{
									OFFSET 29.972298 0.000000 0.000000
									CHANNELS 3 Xrotation Yrotation Zrotation
									JOINT LeftHand
									{
										OFFSET 26.026505 0.000000 0.000000
										CHANNELS 3 Xrotation Yrotation Zrotation
										JOINT LeftHandThumb1
										{
											OFFSET 12.240501 -7.147949 9.207150
											CHANNELS 3 Xrotation Yrotation Zrotation
											JOINT LeftHandThumb2
											{
												OFFSET 4.138618 -2.389435 2.389433
												CHANNELS 3 Xrotation Yrotation Zrotation
												JOINT LeftHandThumb3
												{
													OFFSET 2.726913 -1.574387 1.574386
													CHANNELS 3 Xrotation Yrotation Zrotation
													JOINT LeftHandThumb4
													{
														OFFSET 3.941010 -2.275345 2.275342
														CHANNELS 3 Xrotation Yrotation Zrotation
														End Site
														{
															OFFSET 0.000000 0.000000 0.000000
														}
													}
												}
											}
										}
										JOINT LeftHandIndex1
										{
											OFFSET 24.424698 -1.985611 5.953459
											CHANNELS 3 Xrotation Yrotation Zrotation
											JOINT LeftHandIndex2
											{
												OFFSET 6.426697 0.000000 0.000000
												CHANNELS 3 Xrotation Yrotation Zrotation
												JOINT LeftHandIndex3
												{
													OFFSET 5.337898 0.000000 0.000000
													CHANNELS 3 Xrotation Yrotation Zrotation
													JOINT LeftHandIndex4
													{
														OFFSET 4.409401 0.000000 0.000000
														CHANNELS 3 Xrotation Yrotation Zrotation
														End Site
														{
															OFFSET 0.000000 0.000000 0.000000
														}
													}
												}
											}
										}
										JOINT LeftHandMiddle1
										{
											OFFSET 23.810104 0.000000 0.000000
											CHANNELS 3 Xrotation Yrotation Zrotation
											JOINT LeftHandMiddle2
											{
												OFFSET 7.176498 0.000000 0.000000
												CHANNELS 3 Xrotation Yrotation Zrotation
												JOINT LeftHandMiddle3
												{
													OFFSET 6.774902 0.000000 0.000000
													CHANNELS 3 Xrotation Yrotation Zrotation
													JOINT LeftHandMiddle4
													{
														OFFSET 5.403328 0.000000 0.000000
														CHANNELS 3 Xrotation Yrotation Zrotation
														End Site
														{
															OFFSET 0.000000 0.000000 0.000000
														}
													}
												}
											}
										}
										JOINT LeftHandRing1
										{
											OFFSET 22.908401 -0.839279 -6.020567
											CHANNELS 3 Xrotation Yrotation Zrotation
											JOINT LeftHandRing2
											{
												OFFSET 6.337502 0.000000 0.000000
												CHANNELS 3 Xrotation Yrotation Zrotation
												JOINT LeftHandRing3
												{
													OFFSET 5.779297 0.000000 0.000000
													CHANNELS 3 Xrotation Yrotation Zrotation
													JOINT LeftHandRing4
													{
														OFFSET 4.965698 0.000000 0.000000
														CHANNELS 3 Xrotation Yrotation Zrotation
														End Site
														{
															OFFSET 0.000000 0.000000 0.000000
														}
													}
												}
											}
										}
										JOINT LeftHandPinky1
										{
											OFFSET 20.037003 -1.530319 -10.950146
											CHANNELS 3 Xrotation Yrotation Zrotation
											JOINT LeftHandPinky2
											{
												OFFSET 5.254700 0.000000 0.000000
												CHANNELS 3 Xrotation Yrotation Zrotation
												JOINT LeftHandPinky3
												{
													OFFSET 4.810204 0.000000 0.000000
													CHANNELS 3 Xrotation Yrotation Zrotation
													JOINT LeftHandPinky4
													{
														OFFSET 3.647202 0.000000 0.000000
														CHANNELS 3 Xrotation Yrotation Zrotation
														End Site
														{
															OFFSET 0.000000 0.000000 0.000000
														}
													}
												}
											}
										}
									}
								}
							}
						}
					}
					JOINT RightShoulder
					{
						OFFSET -7.570500 7.247704 -3.868750
						CHANNELS 3 Xrotation Yrotation Zrotation
						JOINT RightShoulder_split
						{
							OFFSET -7.570500 7.247704 -3.868750
							CHANNELS 3 Xrotation Yrotation Zrotation
							JOINT RightArm
							{
								OFFSET -9.308998 -2.777710 0.208500
								CHANNELS 3 Xrotation Yrotation Zrotation
								JOINT RightForeArm
								{
									OFFSET -29.972300 0.000000 0.000000
									CHANNELS 3 Xrotation Yrotation Zrotation
									JOINT RightHand
									{
										OFFSET -26.026505 0.000000 0.000000
										CHANNELS 3 Xrotation Yrotation Zrotation
										JOINT RightHandThumb1
										{
											OFFSET -12.240601 -7.148026 9.207092
											CHANNELS 3 Xrotation Yrotation Zrotation
											JOINT RightHandThumb2
											{
												OFFSET -4.138618 -2.389435 2.389433
												CHANNELS 3 Xrotation Yrotation Zrotation
												JOINT RightHandThumb3
												{
													OFFSET -2.726974 -1.574417 1.574421
													CHANNELS 3 Xrotation Yrotation Zrotation
													JOINT RightHandThumb4
													{
														OFFSET -3.941010 -2.275345 2.275343
														CHANNELS 3 Xrotation Yrotation Zrotation
														End Site
														{
															OFFSET 0.000000 0.000000 0.000000
														}
													}
												}
											}
										}
										JOINT RightHandIndex1
										{
											OFFSET -24.424698 -1.985657 5.953444
											CHANNELS 3 Xrotation Yrotation Zrotation
											JOINT RightHandIndex2
											{
												OFFSET -6.426697 0.000000 0.000000
												CHANNELS 3 Xrotation Yrotation Zrotation
												JOINT RightHandIndex3
												{
													OFFSET -5.337898 0.000000 0.000000
													CHANNELS 3 Xrotation Yrotation Zrotation
													JOINT RightHandIndex4
													{
														OFFSET -4.409401 0.000000 0.000000
														CHANNELS 3 Xrotation Yrotation Zrotation
														End Site
														{
															OFFSET 0.000000 0.000000 0.000000
														}
													}
												}
											}
										}
										JOINT RightHandMiddle1
										{
											OFFSET -23.810097 0.000000 0.000000
											CHANNELS 3 Xrotation Yrotation Zrotation
											JOINT RightHandMiddle2
											{
												OFFSET -7.176498 0.000000 0.000000
												CHANNELS 3 Xrotation Yrotation Zrotation
												JOINT RightHandMiddle3
												{
													OFFSET -6.774902 0.000000 0.000000
													CHANNELS 3 Xrotation Yrotation Zrotation
													JOINT RightHandMiddle4
													{
														OFFSET -5.403328 0.000000 0.000000
														CHANNELS 3 Xrotation Yrotation Zrotation
														End Site
														{
															OFFSET 0.000000 0.000000 0.000000
														}
													}
												}
											}
										}
										JOINT RightHandRing1
										{
											OFFSET -22.908302 -0.839325 -6.020576
											CHANNELS 3 Xrotation Yrotation Zrotation
											JOINT RightHandRing2
											{
												OFFSET -6.337502 0.000000 0.000000
												CHANNELS 3 Xrotation Yrotation Zrotation
												JOINT RightHandRing3
												{
													OFFSET -5.779297 0.000000 0.000000
													CHANNELS 3 Xrotation Yrotation Zrotation
													JOINT RightHandRing4
													{
														OFFSET -4.965698 0.000000 0.000000
														CHANNELS 3 Xrotation Yrotation Zrotation
														End Site
														{
															OFFSET 0.000000 0.000000 0.000000
														}
													}
												}
											}
										}
										JOINT RightHandPinky1
										{
											OFFSET -20.037003 -1.530334 -10.950259
											CHANNELS 3 Xrotation Yrotation Zrotation
											JOINT RightHandPinky2
											{
												OFFSET -5.254700 0.000000 0.000000
												CHANNELS 3 Xrotation Yrotation Zrotation
												JOINT RightHandPinky3
												{
													OFFSET -4.810204 0.000000 0.000000
													CHANNELS 3 Xrotation Yrotation Zrotation
													JOINT RightHandPinky4
													{
														OFFSET -3.647202 0.000000 0.000000
														CHANNELS 3 Xrotation Yrotation Zrotation
														End Site
														{
															OFFSET 0.000000 0.000000 0.000000
														}
													}
												}
											}
										}
									}
								}
							}
						}
					}
				}
			}
		}
	}
	JOINT LeftUpLeg
	{
		OFFSET 15.427100 -6.655098 0.678600
		CHANNELS 3 Xrotation Yrotation Zrotation
		JOINT LeftLeg
		{
			OFFSET 4.081073 -39.591068 13.024000
			CHANNELS 3 Xrotation Yrotation Zrotation
			JOINT LeftFoot
			{
				OFFSET -4.081074 -37.707932 -15.979700
				CHANNELS 3 Xrotation Yrotation Zrotation
				JOINT LeftToeBase
				{
					OFFSET 5.346399 -15.068900 20.645000
					CHANNELS 3 Xrotation Yrotation Zrotation
					JOINT LeftToe_End
					{
						OFFSET 2.754700 0.931300 11.300900
						CHANNELS 3 Xrotation Yrotation Zrotation
						End Site
						{
							OFFSET 0.000000 0.000000 0.000000
						}
					}
				}
			}
		}
	}
	JOINT RightUpLeg
	{
		OFFSET -15.569500 -6.655098 0.678600
		CHANNELS 3 Xrotation Yrotation Zrotation
		JOINT RightLeg
		{
			OFFSET -4.081825 -39.591045 13.023800
			CHANNELS 3 Xrotation Yrotation Zrotation
			JOINT RightFoot
			{
				OFFSET 4.081824 -37.707954 -15.979600
				CHANNELS 3 Xrotation Yrotation Zrotation
				JOINT RightToeBase
				{
					OFFSET -5.346400 -15.068900 20.645000
					CHANNELS 3 Xrotation Yrotation Zrotation
					JOINT RightToe_End
					{
						OFFSET -2.754700 0.931300 11.300900
						CHANNELS 3 Xrotation Yrotation Zrotation
						End Site
						{
							OFFSET 0.000000 0.000000 0.000000
						}
					}
				}
			}
		}
	}
}
MOTION
Frames: 6
Frame Time: 0.016667
2.892662 93.371841 2.103363 -5.335427 -7.819043 5.510467 0.563075 1.087667 -2.712773 0.947294 2.037201 -4.377106 0.000000 0.000000 0.000000 0.968934 2.043659 -4.365419 2.884317 1.135687 4.005908 7.888285 9.350191 8.465891 0.000001 -0.000001 0.000000 1.058070 -0.340529 -4.891289 0.000000 0.000000 0.000000 -16.372110 12.814412 -32.934025 0.000012 -24.507086 0.000016 42.987599 -10.562017 -4.600064 -1.540044 3.690180 6.142334 3.946762 7.971401 0.752857 -0.575595 1.586251 2.542382 -0.000002 0.000002 0.000000 -0.000001 0.000001 -0.000003 0.000003 0.000003 -0.000045 -0.000001 0.000001 -0.000000 -0.000001 0.000002 -0.000003 -0.000004 -0.001932 0.015965 0.000005 0.001922 -0.015981 -0.000002 0.000008 0.000001 -0.000000 -0.000000 -0.000002 -0.000001 0.000001 -0.000002 -0.000001 -0.000006 -0.000037 0.000002 -0.000001 0.000002 -0.000001 -0.000001 0.000001 -0.018089 4.054244 0.511056 -0.018086 -4.054254 -0.511068 -0.000001 0.000000 -0.000001 -0.000000 0.000001 -0.000002 0.199127 -5.464829 5.846318 0.000000 0.000000 0.000000 -40.201216 28.677454 7.199775 -0.000014 4.457086 -0.000003 36.569041 21.327740 -11.047059 -1.908782 1.147437 -8.502728 4.645038 -8.656813 -0.231318 -1.269826 0.126066 -2.098689 -0.000002 0.000001 -0.000004 0.007126 0.315398 -2.588940 0.000001 0.000005 0.000106 -0.000001 -0.000000 0.000006 0.000002 0.000005 0.000000 0.007126 0.315397 -2.588942 -0.000003 0.000009 0.000034 0.000001 0.000003 0.000004 -0.000001 0.000001 0.000001 0.007125 0.315401 -2.588944 0.000001 0.000006 0.000007 -0.000000 0.000003 0.000002 0.000001 -0.000000 0.000001 0.007126 0.315398 -2.588941 0.000002 0.000008 0.000006 -0.000000 -0.000001 0.000007 0.000001 0.000003 0.000000 -25.809820 6.972925 11.664338 20.443537 9.005387 0.925836 29.983803 8.204709 0.682183 -8.178362 0.160920 -4.420770 0.000000 0.000002 -0.000000 -6.131504 -7.840656 14.375397 19.021706 -10.220800 -0.955212 -11.072770 -14.038967 -20.435525 -3.611933 0.000004 0.000004 -0.000000 0.000002 0.000000 
2.669734 93.295601 3.365429 -5.483761 -10.730180 6.105195 0.691825 1.285014 -3.048261 1.150022 2.492870 -4.561966 0.000000 0.000000 0.000000 1.175538 2.502167 -4.546987 2.728370 1.302015 3.879432 7.459740 10.036896 8.266646 -0.000001 0.000000 -0.000000 0.919752 0.306315 -3.868009 0.000000 0.000000 0.000000 -17.993281 11.628144 -29.784133 -0.000014 -26.012420 -0.000013 42.448820 -8.511042 -6.736307 -1.540041 3.690179 6.142335 3.946763 7.971392 0.752855 -0.575598 1.586259 2.542374 0.000002 0.000001 0.000000 0.000003 0.000001 -0.000001 -0.000001 0.000008 -0.000046 0.000000 -0.000004 0.000001 -0.000001 0.000001 -0.000002 0.000000 -0.001932 0.015967 0.000005 0.001925 -0.015977 -0.000003 0.000009 0.000000 -0.000002 0.000003 0.000000 0.000003 0.000001 -0.000000 0.000003 -0.000006 -0.000035 0.000001 0.000005 0.000007 0.000003 0.000002 -0.000004 -0.018087 4.054242 0.511060 -0.018086 -4.054253 -0.511070 0.000002 -0.000004 -0.000001 0.000003 -0.000002 -0.000001 0.206929 -5.347462 5.805465 0.000000 0.000000 0.000000 -41.452384 31.404103 7.845452 0.000012 4.254773 0.000004 36.426649 17.698518 -11.018018 -1.940995 0.213046 -8.122627 4.645038 -8.656807 -0.231315 -1.269827 0.126067 -2.098690 -0.000005 0.000003 -0.000002 0.004584 0.253155 -2.077726 -0.000003 0.000006 0.000103 -0.000004 -0.000003 0.000007 -0.000001 -0.000002 0.000000 0.004584 0.253155 -2.077727 -0.000000 0.000003 0.000034 0.000002 -0.000001 -0.000001 -0.000001 -0.000001 0.000001 0.004586 0.253161 -2.077731 -0.000001 0.000006 0.000009 -0.000002 0.000002 0.000006 -0.000001 -0.000004 -0.000001 0.004584 0.253155 -2.077727 -0.000001 0.000006 0.000007 -0.000002 0.000002 0.000006 -0.000002 0.000001 0.000000 -27.437273 7.002362 9.981727 21.172702 9.025737 0.874716 30.372653 7.027188 -1.731189 -5.074026 0.028108 -1.885672 0.000001 0.000000 0.000000 -5.022417 -7.575958 13.702945 20.255116 -10.117295 -0.900368 -12.144087 -12.580499 -19.069755 -3.850626 -0.000006 0.000002 -0.000000 0.000001 0.000000 
2.398407 93.195343 4.591602 -5.635389 -13.643354 6.642911 0.820606 1.488987 -3.368683 1.350767 2.961713 -4.730876 0.000000 0.000000 0.000000 1.379869 2.974012 -4.712206 2.584065 1.463158 3.751658 7.038279 10.697006 8.064930 -0.000001 -0.000000 -0.000000 0.757069 0.956893 -2.838909 0.000000 0.000000 0.000000 -19.446295 10.332250 -26.706619 0.000007 -27.039604 0.000004 42.214134 -6.536507 -9.326118 -1.540040 3.690178 6.142340 3.946762 7.971395 0.752855 -0.575597 1.586257 2.542376 0.000001 -0.000002 0.000001 0.000001 0.000003 0.000004 0.000002 0.000010 -0.000049 0.000000 0.000001 0.000000 0.000002 -0.000001 0.000003 -0.000003 -0.001929 0.015971 0.000006 0.001920 -0.015978 -0.000003 0.000001 0.000000 0.000001 -0.000000 -0.000001 0.000001 0.000003 0.000003 0.000002 -0.000006 -0.000037 0.000001 0.000004 0.000002 0.000002 -0.000002 0.000001 -0.018089 4.054246 0.511060 -0.018088 -4.054256 -0.511063 0.000001 -0.000001 -0.000002 0.000001 0.000003 -0.000002 0.212557 -5.231000 5.754126 0.000000 0.000000 0.000000 -42.739496 34.146520 8.566001 -0.000001 4.063301 -0.000002 36.307923 13.991125 -11.057209 -1.951455 -0.743596 -7.734750 4.645038 -8.656812 -0.231314 -1.269827 0.126066 -2.098694 -0.000000 0.000001 -0.000001 0.002568 0.189420 -1.554393 -0.000000 0.000007 0.000105 -0.000001 -0.000001 0.000008 0.000000 0.000002 0.000001 0.002569 0.189419 -1.554393 -0.000002 0.000005 0.000031 -0.000000 0.000001 0.000001 -0.000001 0.000001 -0.000002 0.002570 0.189413 -1.554387 -0.000000 0.000006 0.000012 -0.000000 0.000003 0.000008 0.000002 -0.000002 -0.000000 0.002568 0.189420 -1.554393 0.000001 0.000003 0.000003 -0.000002 -0.000001 0.000001 0.000001 -0.000001 0.000000 -28.950317 7.175734 8.161517 21.929560 9.105660 0.846225 30.858603 6.087776 -4.100362 -1.953725 -0.000005 0.000006 -0.000000 0.000000 -0.000000 -3.928455 -7.345407 12.983204 21.554569 -10.009279 -0.834471 -13.227101 -11.183899 -17.633855 -4.090871 0.000003 -0.000003 -0.000000 -0.000004 0.000000 
2.064317 93.080452 5.769838 -5.801757 -16.504254 7.093331 0.950326 1.708416 -3.660020 1.552684 3.454291 -4.875776 0.000000 0.000000 0.000000 1.585066 3.469683 -4.853022 2.463897 1.609704 3.624302 6.649702 11.284549 7.868932 0.000001 0.000000 0.000000 0.574223 1.603290 -1.815879 0.000000 0.000000 0.000000 -20.697787 9.000520 -23.723484 -0.000006 -27.489797 -0.000004 42.273011 -4.912399 -12.211361 -1.540043 3.690180 6.142341 3.946763 7.971394 0.752852 -0.575598 1.586260 2.542375 -0.000002 0.000002 0.000002 -0.000001 0.000004 0.000003 -0.000002 0.000007 -0.000048 0.000002 0.000001 0.000003 0.000001 0.000002 -0.000002 -0.000003 -0.001930 0.015972 0.000004 0.001927 -0.015978 -0.000003 0.000002 0.000001 -0.000000 -0.000003 0.000000 -0.000001 0.000004 0.000002 -0.000001 -0.000004 -0.000032 0.000000 0.000001 0.000005 0.000001 0.000000 -0.000000 -0.018093 4.054249 0.511062 -0.018085 -4.054253 -0.511067 0.000001 -0.000002 -0.000002 -0.000001 -0.000001 0.000001 0.215349 -5.122707 5.672775 0.000000 0.000000 0.000000 -43.983976 36.850141 9.221129 0.000004 3.892990 0.000004 35.960656 10.271117 -10.808901 -1.940597 -1.643845 -7.370415 4.645035 -8.656805 -0.231314 -1.269826 0.126065 -2.098692 0.000001 0.000002 0.000005 0.001195 0.129391 -1.061771 -0.000000 0.000005 0.000100 -0.000002 -0.000001 0.000005 -0.000001 0.000002 -0.000000 0.001195 0.129391 -1.061772 -0.000002 0.000002 0.000033 0.000002 0.000002 0.000005 -0.000000 -0.000000 0.000002 0.001194 0.129391 -1.061769 0.000001 0.000007 0.000008 0.000001 -0.000002 0.000007 -0.000000 -0.000001 0.000001 0.001195 0.129391 -1.061772 0.000002 0.000003 0.000007 -0.000001 -0.000001 0.000003 0.000000 0.000000 0.000001 -30.383564 7.489593 6.221030 22.684037 9.246886 0.846761 31.532740 5.490714 -6.383965 -0.678836 -0.000003 -0.000002 0.000001 0.000001 -0.000000 -2.809022 -7.157570 12.265601 22.830829 -9.897526 -0.762373 -14.268529 -9.881380 -16.176774 -4.247172 0.000020 0.000001 -0.000000 0.000001 -0.000000 
1.583662 92.991516 6.863400 -6.008665 -19.214721 7.335128 1.094353 1.975642 -3.910340 1.780583 4.029425 -4.976538 0.000000 0.000000 0.000000 1.816225 4.047994 -4.948807 2.395714 1.711543 3.497552 6.360600 11.646651 7.705534 -0.000000 0.000000 0.000000 0.374557 2.240370 -0.806797 0.000000 0.000000 0.000000 -21.745724 7.692720 -20.829159 0.000001 -27.338008 0.000006 42.560514 -3.851458 -15.231563 -1.540042 3.690179 6.142336 3.946761 7.971399 0.752852 -0.575599 1.586257 2.542376 0.000002 -0.000000 0.000002 0.000001 0.000005 -0.000000 -0.000000 0.000010 -0.000048 0.000001 -0.000000 0.000000 0.000001 -0.000003 0.000001 -0.000002 -0.001931 0.015968 0.000002 0.001928 -0.015977 -0.000003 0.000004 0.000004 -0.000000 0.000002 -0.000002 0.000001 0.000005 -0.000001 -0.000001 -0.000007 -0.000034 0.000001 0.000000 0.000004 0.000001 0.000002 -0.000000 -0.018089 4.054247 0.511059 -0.018086 -4.054257 -0.511063 -0.000000 -0.000001 -0.000002 -0.000000 -0.000000 0.000001 0.214940 -5.027856 5.548213 0.000000 0.000000 0.000000 -45.098182 39.487721 9.681368 0.000007 3.811695 0.000002 35.292520 6.579495 -9.972262 -1.915014 -2.423507 -7.055058 4.645038 -8.656806 -0.231316 -1.269825 0.126065 -2.098693 -0.000002 0.000001 0.000003 0.000429 0.077376 -0.634895 -0.000001 0.000005 0.000105 -0.000000 -0.000004 0.000003 0.000001 -0.000000 -0.000000 0.000429 0.077376 -0.634896 -0.000001 0.000003 0.000032 0.000002 -0.000001 0.000001 0.000001 0.000002 0.000002 0.000430 0.077374 -0.634896 -0.000001 0.000006 0.000006 -0.000001 -0.000000 0.000006 0.000000 -0.000000 -0.000001 0.000429 0.077376 -0.634896 -0.000001 0.000005 0.000003 -0.000001 0.000001 0.000007 0.000001 0.000002 -0.000004 -31.844804 8.013274 4.146539 23.337214 9.475526 0.897077 32.681991 5.597918 -8.563240 -0.420309 -0.000001 0.000000 -0.000002 0.000001 -0.000000 -1.505459 -7.102623 11.744050 23.797766 -9.788000 -0.689496 -15.023532 -8.768506 -14.849164 -4.488567 0.000010 -0.000002 -0.000000 -0.000002 0.000001 
0.814018 92.997864 7.801538 -6.280541 -21.659057 7.174746 1.273041 2.337456 -4.116262 2.069222 4.782980 -4.995582 0.000000 0.000000 0.000000 2.108387 4.805058 -4.960762 2.414554 1.724740 3.360782 6.257614 11.547426 7.606875 -0.000001 0.000000 -0.000000 0.158926 2.867090 0.188196 0.000000 0.000000 0.000000 -22.609931 6.437971 -17.983270 0.000005 -26.652735 0.000006 42.927435 -3.493429 -18.124336 -1.540045 3.690184 6.142339 3.946762 7.971404 0.752853 -0.575596 1.586256 2.542376 0.000001 -0.000001 -0.000001 -0.000000 0.000005 -0.000000 0.000000 0.000004 -0.000048 0.000001 -0.000004 0.000000 -0.000001 -0.000000 0.000003 -0.000004 -0.001928 0.015969 0.000006 0.001922 -0.015975 -0.000001 0.000003 0.000003 -0.000000 -0.000002 0.000004 -0.000000 0.000005 -0.000000 0.000001 -0.000005 -0.000036 0.000002 0.000002 0.000007 -0.000001 -0.000000 0.000002 -0.018091 4.054248 0.511060 -0.018090 -4.054254 -0.511068 0.000000 -0.000000 0.000002 -0.000000 -0.000000 0.000001 0.211109 -4.950959 5.370194 0.000000 0.000000 0.000000 -45.996338 42.033913 9.824708 -0.000004 3.849768 -0.000002 34.344793 2.991032 -8.265498 -1.884996 -3.025508 -6.811440 4.645038 -8.656811 -0.231316 -1.269826 0.126066 -2.098689 0.000000 0.000001 0.000001 0.000097 0.037172 -0.305040 0.000001 0.000005 0.000102 -0.000003 -0.000002 0.000004 0.000001 -0.000000 0.000001 0.000098 0.037172 -0.305041 -0.000003 0.000005 0.000031 0.000001 0.000000 0.000001 0.000000 -0.000002 0.000000 0.000096 0.037171 -0.305035 0.000001 0.000005 0.000007 0.000003 -0.000002 0.000006 0.000002 -0.000000 0.000001 0.000097 0.037172 -0.305041 0.000000 0.000008 0.000003 0.000000 -0.000004 0.000003 0.000001 -0.000001 -0.000001 -33.393498 8.919536 1.817547 23.870545 9.848746 1.038138 34.588447 7.127306 -10.531405 -0.235380 -0.000001 0.000000 -0.000001 -0.000000 0.000000 0.219261 -7.374723 11.736084 24.021178 -9.691991 -0.624868 -15.008349 -7.962990 -13.850485 -6.630749 0.026468 -1.026214 -0.000000 -0.000003 0.000000 
